<svg version="1.1" id="Layer_1" xmlns="http://www.w3.org/2000/svg" xmlns:xlink="http://www.w3.org/1999/xlink" x="0px" y="0px"
	 width="100%" viewBox="0 0 1530 350" enable-background="new 0 0 1530 350" xml:space="preserve">
<path fill="#FEFEFE" opacity="1.000000" stroke="none"
	d="
M523.969910,154.000000
	C523.969910,130.543869 523.969910,107.587753 523.969910,84.382935
	C535.285339,84.382935 546.222717,84.382935 557.724487,84.382935
	C557.724487,107.624832 557.724487,130.995270 557.724487,154.633392
	C584.352844,154.633392 610.420044,154.633392 636.893311,154.633392
	C636.893311,131.364914 636.893311,108.118736 636.893311,84.503342
	C648.332825,84.503342 659.374939,84.503342 670.689941,84.503342
	C670.689941,142.435547 670.689941,200.351807 670.689941,258.634949
	C659.804260,258.634949 648.749756,258.634949 637.226685,258.634949
	C637.226685,234.186142 637.226685,209.620392 637.226685,184.769409
	C610.688538,184.769409 584.612610,184.769409 558.135376,184.769409
	C558.135376,209.232178 558.135376,233.817947 558.135376,258.701385
	C546.674316,258.701385 535.607239,258.701385 523.969910,258.701385
	C523.969910,224.004150 523.969910,189.252075 523.969910,154.000000
z"/>
<path fill="#FDFDFD" opacity="1.000000" stroke="none"
	d="
M271.000000,259.003906
	C249.535858,259.003906 228.571716,259.003906 207.359329,259.003906
	C207.359329,200.704468 207.359329,142.777161 207.359329,84.489326
	C246.750687,84.489326 286.149872,84.489326 325.950378,84.489326
	C325.950378,94.080208 325.950378,103.792419 325.950378,113.894615
	C297.994080,113.894615 269.891296,113.894615 241.471222,113.894615
	C241.471222,128.004822 241.471222,141.733963 241.471222,155.891708
	C265.726532,155.891708 289.976288,155.891708 314.551819,155.891708
	C314.551819,165.225616 314.551819,174.143204 314.551819,183.703339
	C290.299133,183.703339 265.930725,183.703339 241.361343,183.703339
	C241.361343,199.093643 241.361343,213.845062 241.361343,228.954590
	C270.332611,228.954590 299.105743,228.954590 328.277557,228.954590
	C328.277557,239.012451 328.277557,248.723984 328.277557,259.003906
	C309.372986,259.003906 290.436493,259.003906 271.000000,259.003906
z"/>
<path fill="#FDFDFD" opacity="1.000000" stroke="none"
	d="
M1239.999268,183.822083
	C1221.541504,183.822083 1203.583618,183.822083 1185.390381,183.822083
	C1185.390381,199.017807 1185.390381,213.769928 1185.390381,229.053284
	C1214.385132,229.053284 1243.274170,229.053284 1272.417847,229.053284
	C1272.417847,239.174118 1272.417847,248.768387 1272.417847,258.684265
	C1232.134033,258.684265 1191.904785,258.684265 1151.391602,258.684265
	C1151.391602,200.773254 1151.391602,142.844879 1151.391602,84.522644
	C1190.817139,84.522644 1230.349487,84.522644 1270.116943,84.522644
	C1270.116943,94.223747 1270.116943,103.838501 1270.116943,113.832870
	C1242.068359,113.832870 1213.960938,113.832870 1185.503296,113.832870
	C1185.503296,127.932510 1185.503296,141.661758 1185.503296,155.821472
	C1209.662476,155.821472 1233.911011,155.821472 1258.519043,155.821472
	C1258.519043,165.275696 1258.519043,174.307449 1258.519043,183.822083
	C1252.413940,183.822083 1246.456543,183.822083 1239.999268,183.822083
z"/>
<path fill="#FDFDFD" opacity="1.000000" stroke="none"
	d="
M955.994385,114.031364
	C932.190186,114.031364 908.884399,114.031364 885.274597,114.031364
	C885.274597,127.992233 885.274597,141.726059 885.274597,155.868652
	C909.446655,155.868652 933.696289,155.868652 958.288940,155.868652
	C958.288940,165.316757 958.288940,174.360092 958.288940,183.662720
	C933.905396,183.662720 909.783386,183.662720 885.315918,183.662720
	C885.315918,198.802017 885.315918,213.689636 885.315918,228.963089
	C914.016907,228.963089 942.760315,228.963089 971.893250,228.963089
	C971.893250,239.045242 971.893250,248.757278 971.893250,258.738037
	C931.812866,258.738037 891.587769,258.738037 851.165527,258.738037
	C851.165527,200.655365 851.165527,142.724854 851.165527,84.462433
	C890.566650,84.462433 929.963379,84.462433 969.721619,84.462433
	C969.721619,94.058380 969.721619,103.774658 969.721619,114.031364
	C965.378967,114.031364 960.935913,114.031364 955.994385,114.031364
z"/>
<path fill="#FDFDFD" opacity="1.000000" stroke="none"
	d="
M1400.467651,92.544777
	C1406.642334,95.817863 1412.488770,98.900024 1418.574219,102.108223
	C1413.394409,111.634071 1408.560181,120.524506 1404.243408,128.463104
	C1393.923340,124.087173 1383.949707,119.397171 1373.640747,115.622940
	C1364.261108,112.188927 1354.367676,111.857277 1344.587158,114.102371
	C1336.829102,115.883186 1330.664429,119.869347 1329.014282,128.346039
	C1327.221802,137.554214 1330.068481,144.118484 1339.081787,147.739578
	C1349.366943,151.871704 1360.237061,154.533752 1370.808716,157.971283
	C1379.327881,160.741409 1388.020508,163.161240 1396.216187,166.707214
	C1416.473511,175.471771 1425.055786,189.245255 1424.537964,210.349167
	C1424.008179,231.937988 1414.038940,247.130188 1393.875977,254.993073
	C1371.566040,263.693237 1348.823853,262.303772 1326.140747,256.482086
	C1312.043335,252.863907 1298.841553,247.118027 1286.423096,238.302185
	C1291.332397,228.679733 1296.207153,219.124969 1301.265381,209.210495
	C1314.070557,218.861328 1328.187500,225.138733 1343.545410,228.537827
	C1353.563232,230.755066 1363.701294,231.270081 1373.755981,228.864288
	C1383.818848,226.456512 1388.685425,220.075378 1388.120361,210.798203
	C1387.759399,204.873932 1384.645630,200.480133 1379.534912,198.262543
	C1370.729980,194.441986 1361.652344,191.219833 1352.586426,188.038971
	C1342.563843,184.522461 1332.276733,181.722488 1322.373657,177.911896
	C1307.805298,172.306152 1296.403320,163.212540 1294.195190,146.572083
	C1291.662109,127.480309 1295.858765,110.401001 1311.405273,97.579903
	C1323.317139,87.756317 1337.473389,83.929955 1352.571655,83.091278
	C1369.185913,82.168396 1384.974976,85.714050 1400.467651,92.544777
z"/>
<path fill="#FDFDFD" opacity="1.000000" stroke="none"
	d="
M461.448120,88.487671
	C477.828217,95.057549 490.227356,105.551620 498.745422,121.395180
	C490.068359,127.392876 481.538086,133.289124 472.651428,139.431702
	C466.625366,126.390228 456.784485,118.308853 443.221710,115.056320
	C416.069672,108.544930 392.151855,121.587639 383.153259,148.048141
	C376.376251,167.975922 377.723114,187.435486 388.562958,205.723282
	C411.052399,243.665192 460.996918,233.790726 473.439697,203.907410
	C482.622192,209.168686 491.744690,214.395599 501.117065,219.765701
	C497.417511,229.607208 491.091705,237.096222 482.901703,243.092224
	C448.985077,267.922791 392.152069,271.673004 359.481293,220.056870
	C330.426880,174.154205 345.788635,114.589798 392.651123,91.670631
	C414.824066,80.826462 437.854797,80.649368 461.448120,88.487671
z"/>
<path fill="#FDFDFD" opacity="1.000000" stroke="none"
	d="
M94.747986,114.067535
	C76.443001,114.037674 58.619946,114.037674 40.448647,114.037674
	C40.448647,104.163460 40.448647,94.445724 40.448647,84.426720
	C88.691376,84.426720 136.918793,84.426720 185.470291,84.426720
	C185.470291,94.052643 185.470291,103.640144 185.470291,113.755417
	C167.262207,113.755417 148.884705,113.755417 130.053711,113.755417
	C130.053711,162.321838 130.053711,210.367355 130.053711,258.707336
	C118.548691,258.707336 107.498108,258.707336 96.022278,258.707336
	C96.022278,256.821564 96.022285,255.035141 96.022285,253.248718
	C96.022285,208.595505 96.031151,163.942276 95.988823,119.289108
	C95.987183,117.558304 95.494041,115.827957 94.747986,114.067535
z"/>
<path fill="#FDFDFD" opacity="1.000000" stroke="none"
	d="
M1129.793945,107.863113
	C1129.793945,109.993965 1129.793945,111.642555 1129.793945,113.810715
	C1111.206177,113.810715 1092.826538,113.810715 1073.997314,113.810715
	C1073.997314,162.375610 1073.997314,210.423050 1073.997314,258.735992
	C1062.613892,258.735992 1051.678467,258.735992 1040.320068,258.735992
	C1040.320068,210.845108 1040.320068,162.786316 1040.320068,114.258926
	C1021.512207,114.258926 1003.114380,114.258926 984.410278,114.258926
	C984.410278,104.077972 984.410278,94.362648 984.410278,84.387085
	C1032.771851,84.387085 1080.997803,84.387085 1129.793945,84.387085
	C1129.793945,92.157776 1129.793945,99.769310 1129.793945,107.863113
z"/>
<path fill="#FCFCFC" opacity="1.000000" stroke="none"
	d="
M741.488159,189.000320
	C741.488098,202.493988 741.488098,215.487625 741.488098,228.904831
	C771.081238,228.904831 800.508545,228.904831 830.296692,228.904831
	C830.296692,239.045868 830.296692,248.770523 830.296692,258.752441
	C789.484192,258.752441 748.723389,258.752441 707.651245,258.752441
	C707.651245,200.729401 707.651245,142.678345 707.651245,84.376984
	C718.784424,84.376984 729.723816,84.376984 741.488159,84.376984
	C741.488159,119.043617 741.488159,153.771957 741.488159,189.000320
z"/>
<path fill="#F9A100" opacity="1.000000" stroke="none"
	d="
M1456.280884,252.116821
	C1456.826294,250.664001 1457.489502,249.136307 1458.579956,248.029541
	C1465.241943,241.268265 1472.000854,234.602448 1478.890747,227.741989
	C1471.206299,219.673172 1463.614624,211.701706 1456.052246,203.381790
	C1458.622192,200.713593 1461.162598,198.393845 1463.715454,196.062836
	C1474.157837,206.694168 1484.490112,217.213470 1494.737915,227.646790
	C1484.557983,237.626266 1473.948975,248.026413 1462.560303,259.190948
	C1460.885986,257.238586 1458.741089,254.737564 1456.280884,252.116821
z"/>
</svg>
